<svg width="51" height="51" viewBox="0 0 51 51" fill="none" xmlns="http://www.w3.org/2000/svg">
<circle cx="25.5" cy="25.5" r="25.5" fill="#684835"/>
<path fill-rule="evenodd" clip-rule="evenodd" d="M11.7918 25.2986C18.7883 22.2504 23.4537 20.2408 25.788 19.2699C32.4531 16.4976 33.838 16.0161 34.7407 16.0002C34.9392 15.9967 35.3832 16.0459 35.6707 16.2792C35.9135 16.4762 35.9803 16.7424 36.0123 16.9292C36.0443 17.1159 36.0841 17.5415 36.0524 17.8739C35.6912 21.6689 34.1284 30.8783 33.3333 35.1287C32.9969 36.9272 32.3345 37.5303 31.6932 37.5893C30.2994 37.7175 29.2411 36.6682 27.8912 35.7833C25.7789 34.3987 24.5856 33.5367 22.5352 32.1856C20.1657 30.6241 21.7017 29.7659 23.0521 28.3633C23.4055 27.9962 29.5463 22.4107 29.6652 21.904C29.68 21.8406 29.6938 21.6044 29.5535 21.4797C29.4132 21.355 29.2061 21.3976 29.0566 21.4315C28.8447 21.4796 25.4703 23.71 18.9333 28.1227C17.9754 28.7804 17.1079 29.1009 16.3306 29.0841C15.4736 29.0656 13.8253 28.5995 12.5999 28.2012C11.0969 27.7127 9.9023 27.4543 10.0063 26.6246C10.0605 26.1924 10.6556 25.7504 11.7918 25.2986Z" fill="#3F1A05"/>
</svg>
